<svg class="icon" width="11" height="11" viewBox="0 0 12 12" fill="none" xmlns="http://www.w3.org/2000/svg">
    <path d="M9.24999 6.8C9.73962 6.50184 10.1528 6.09342 10.4567 5.60729C10.7605 5.12116 10.9465 4.57077 11 4C11.0093 3.48388 10.9168 2.971 10.7278 2.49063C10.5388 2.01027 10.2571 1.57184 9.89861 1.20039C9.54016 0.828938 9.11204 0.531742 8.63871 0.325776C8.16538 0.119811 7.65611 0.00911107 7.13999 0H0.649994V14H7.64999C8.14115 13.9948 8.62646 13.8929 9.07822 13.7001C9.52998 13.5073 9.93934 13.2274 10.2829 12.8764C10.6265 12.5253 10.8976 12.1101 11.0807 11.6543C11.2638 11.1985 11.3553 10.7112 11.35 10.22V10.1C11.3503 9.40711 11.1529 8.72852 10.7809 8.14395C10.4089 7.55939 9.87782 7.09315 9.24999 6.8V6.8ZM2.64999 2H6.84999C7.27617 1.98681 7.69618 2.10428 8.05367 2.33665C8.41116 2.56902 8.68903 2.90517 8.84999 3.3C9.01287 3.82779 8.96019 4.39859 8.70348 4.88765C8.44677 5.37672 8.00689 5.74428 7.47999 5.91C7.27538 5.96996 7.06322 6.00027 6.84999 6H2.64999V2ZM7.24999 12H2.64999V8H7.24999C7.67617 7.98681 8.09618 8.10428 8.45367 8.33665C8.81116 8.56902 9.08903 8.90517 9.24999 9.3C9.41287 9.82779 9.36019 10.3986 9.10348 10.8877C8.84677 11.3767 8.40689 11.7443 7.87999 11.91C7.67538 11.97 7.46322 12.0003 7.24999 12V12Z" fill="black" />
</svg>