<svg class="icon" width="24" height="24" viewBox="0 0 24 24" fill="none" xmlns="http://www.w3.org/2000/svg">
    <path d="M12 6.66669C13.1267 6.66836 14.218 7.0601 15.0885 7.77534C15.959 8.49057 16.555 9.48517 16.7753 10.5901L17.0714 12.0928L18.5994 12.1986C19.266 12.2427 19.8893 12.5446 20.3371 13.0404C20.7849 13.5362 21.022 14.1869 20.9983 14.8546C20.9745 15.5222 20.6917 16.1544 20.2098 16.6171C19.7279 17.0798 19.0848 17.3367 18.4167 17.3333H6.5C5.60528 17.3339 4.74435 16.9916 4.09431 16.3768C3.44427 15.762 3.05455 14.9215 3.00532 14.0281C2.95608 13.1347 3.25107 12.2565 3.8296 11.5739C4.40814 10.8914 5.22623 10.4566 6.1156 10.3588L7.18242 10.2454L7.678 9.29389C8.0879 8.50149 8.70798 7.83719 9.47033 7.37379C10.2327 6.91038 11.1079 6.66575 12 6.66669ZM12 4.66669C10.7423 4.66695 9.5088 5.01241 8.43392 5.66542C7.35903 6.31843 6.484 7.25395 5.90417 8.37002C4.50555 8.52189 3.21837 9.20416 2.30758 10.2764C1.39679 11.3486 0.931701 12.7292 1.00805 14.134C1.08439 15.5387 1.69636 16.8608 2.71799 17.828C3.73962 18.7952 5.09316 19.3339 6.5 19.3333H18.4167C19.6033 19.3368 20.7447 18.8786 21.5995 18.0556C22.4544 17.2327 22.9556 16.1095 22.9973 14.9237C23.039 13.7378 22.6178 12.5822 21.8228 11.7013C21.0278 10.8204 19.9214 10.2832 18.7375 10.2033C18.4296 8.64291 17.5895 7.23777 16.3607 6.22796C15.1318 5.21814 13.5905 4.6663 12 4.66669ZM12.9998 11.9136H14.9138L11.9998 9.00002L9.08618 11.9136H10.9998V14.9136H11V16H13V14H12.9998V11.9136Z" fill="black" />
</svg>