<svg class="icon icon-pencil" width="15" height="15" viewBox="0 0 15 15" fill="none" xmlns="http://www.w3.org/2000/svg">
    <path d="M11 1.55228C11.1751 1.37719 11.383 1.2383 11.6117 1.14353C11.8405 1.04877 12.0857 1 12.3333 1C12.581 1 12.8262 1.04877 13.0549 1.14353C13.2837 1.2383 13.4916 1.37719 13.6667 1.55228C13.8418 1.72738 13.9807 1.93525 14.0754 2.16402C14.1702 2.3928 14.219 2.638 14.219 2.88562C14.219 3.13324 14.1702 3.37844 14.0754 3.60721C13.9807 3.83599 13.8418 4.04386 13.6667 4.21895L4.66667 13.219L1 14.219L2 10.5523L11 1.55228Z" stroke="var(--color-white)" stroke-linecap="round" stroke-linejoin="round" />
</svg>